<svg width="145" height="148" viewBox="0 0 145 148" fill="none" xmlns="http://www.w3.org/2000/svg">
<g filter="url(#filter0_d_1_151)">
<rect x="41" y="30" width="40" height="40" rx="10" fill="white"/>
</g>
<path d="M69.4734 56.0001C67.1577 55.158 65.2629 54.3159 61.0524 55.5791V45.8949H69.4734V56.0001Z" stroke="#21BDCA"/>
<path d="M52 56.0001C54.3158 55.158 56.2106 54.3159 60.4211 55.5791V45.8949H52V56.0001Z" stroke="#21BDCA"/>
<path d="M60.6313 45.72C58.7787 43.5305 55.1577 43.733 53.684 44.6673V54.141C56.4208 53.6277 59.3682 54.4698 60.6313 54.9831V45.72Z" fill="white" stroke="#21BDCA"/>
<path d="M60.8422 45.72C62.6948 43.5305 66.3158 43.733 67.7895 44.6673V54.141C65.0527 53.6277 62.1053 54.4698 60.8422 54.9831V45.72Z" fill="white" stroke="#21BDCA"/>
<defs>
<filter id="filter0_d_1_151" x="-3" y="0" width="148" height="148" filterUnits="userSpaceOnUse" color-interpolation-filters="sRGB">
<feFlood flood-opacity="0" result="BackgroundImageFix"/>
<feColorMatrix in="SourceAlpha" type="matrix" values="0 0 0 0 0 0 0 0 0 0 0 0 0 0 0 0 0 0 127 0" result="hardAlpha"/>
<feOffset dx="10" dy="24"/>
<feGaussianBlur stdDeviation="27"/>
<feColorMatrix type="matrix" values="0 0 0 0 0.2 0 0 0 0 0.2 0 0 0 0 0.2 0 0 0 0.05 0"/>
<feBlend mode="normal" in2="BackgroundImageFix" result="effect1_dropShadow_1_151"/>
<feBlend mode="normal" in="SourceGraphic" in2="effect1_dropShadow_1_151" result="shape"/>
</filter>
</defs>
</svg>
